<svg width="50" height="50" viewBox="0 0 50 50" fill="none" xmlns="http://www.w3.org/2000/svg">
<path d="M1.79077 18.4256C1.79077 14.8768 5.55333 12 10.1947 12H39.8053C44.4466 12 48.2092 14.8768 48.2092 18.4256V27.7075C48.2092 31.2562 44.4466 34.1331 39.8053 34.1331H10.1947C5.55332 34.1331 1.79077 31.2563 1.79077 27.7075V18.4256Z" fill="#FFF6E4"/>
<path fill-rule="evenodd" clip-rule="evenodd" d="M15.7163 23.0665C16.7417 23.0665 17.573 22.2352 17.573 21.2098C17.573 20.1843 16.7417 19.353 15.7163 19.353C14.6908 19.353 13.8595 20.1843 13.8595 21.2098C13.8595 22.2352 14.6908 23.0665 15.7163 23.0665ZM15.7163 23.9949C17.2544 23.9949 18.5014 22.7479 18.5014 21.2098C18.5014 19.6716 17.2544 18.4247 15.7163 18.4247C14.1781 18.4247 12.9312 19.6716 12.9312 21.2098C12.9312 22.7479 14.1781 23.9949 15.7163 23.9949Z" fill="#EBB447"/>
<path fill-rule="evenodd" clip-rule="evenodd" d="M15.7163 25.8516C18.2799 25.8516 20.3582 23.7734 20.3582 21.2098C20.3582 18.6461 18.2799 16.5679 15.7163 16.5679C13.1527 16.5679 11.0745 18.6461 11.0745 21.2098C11.0745 23.7734 13.1527 25.8516 15.7163 25.8516ZM15.7163 26.78C18.7927 26.78 21.2865 24.2861 21.2865 21.2098C21.2865 18.1334 18.7927 15.6396 15.7163 15.6396C12.64 15.6396 10.1461 18.1334 10.1461 21.2098C10.1461 24.2861 12.64 26.78 15.7163 26.78Z" fill="#FCCF76"/>
<path fill-rule="evenodd" clip-rule="evenodd" d="M15.7163 28.6367C19.8181 28.6367 23.1432 25.3115 23.1432 21.2098C23.1432 17.108 19.8181 13.7828 15.7163 13.7828C11.6145 13.7828 8.28933 17.108 8.28933 21.2098C8.28933 25.3115 11.6145 28.6367 15.7163 28.6367ZM15.7163 29.5651C20.3308 29.5651 24.0716 25.8243 24.0716 21.2098C24.0716 16.5952 20.3308 12.8544 15.7163 12.8544C11.1018 12.8544 7.36096 16.5952 7.36096 21.2098C7.36096 25.8243 11.1018 29.5651 15.7163 29.5651Z" fill="#FFE8B9"/>
<path d="M20.0721 32.4026H23.9119L14.7641 22.9019C14.6511 22.3612 14.5834 21.1408 15.2158 20.5846C15.8483 20.0285 17.0605 20.3529 17.5875 20.5846L22.2637 25.1033C22.3541 22.786 24.4095 23.0564 25.4259 23.4812C25.4259 20.7005 27.5341 21.0095 28.5881 21.5115C28.8592 19.1943 30.508 19.2329 31.2986 19.5419L37.2383 25.1033L37.6901 25.6826C39.3841 28.9267 39.4971 32.866 37.0125 35.415C34.7874 37.6977 31.2904 38.1185 29.5587 37.8481L20.0721 35.9943C19.7709 35.8785 19.146 35.3455 19.0557 34.1405C18.9653 32.9356 19.6956 32.4798 20.0721 32.4026Z" fill="#EBB447"/>
</svg>
