<svg width="50" height="50" viewBox="0 0 50 50" fill="none" xmlns="http://www.w3.org/2000/svg">
<path d="M2 20.1934C2 16.4472 5.72864 13.4102 10.3282 13.4102H39.6718C44.2714 13.4102 48 16.4472 48 20.1934V29.992C48 33.7383 44.2714 36.7753 39.6718 36.7753H10.3281C5.72864 36.7753 2 33.7383 2 29.992V20.1934Z" fill="#FFF6E4"/>
<path d="M24.7536 24.9333C28.4242 24.9333 31.3998 21.9577 31.3998 18.2871C31.3998 14.6166 28.4242 11.641 24.7536 11.641C21.083 11.641 18.1075 14.6166 18.1075 18.2871C18.1075 21.9577 21.083 24.9333 24.7536 24.9333Z" fill="#EBB447"/>
<path d="M24.7536 26.7058C18.7164 26.7058 11.7307 28.8356 11.7307 33.7657V36.8027H37.7765V33.7855C37.7765 28.8356 30.7908 26.7058 24.7536 26.7058Z" fill="#EBB447"/>
<path d="M26.7693 31.6176L29.8801 34.5361L37.9062 27.5641" stroke="#FFE8B9" stroke-width="2" stroke-linecap="round"/>
</svg>
