<svg width="50" height="50" viewBox="0 0 50 50" fill="none" xmlns="http://www.w3.org/2000/svg">
<path d="M2 21.001C2 17.1784 5.66938 14.0796 10.1958 14.0796H39.0731C43.5995 14.0796 47.2689 17.1784 47.2689 21.001V30.9991C47.2689 34.8217 43.5995 37.9205 39.0731 37.9205H10.1958C5.66937 37.9205 2 34.8217 2 30.9991V21.001Z" fill="#FFF6E4"/>
<circle cx="24.7688" cy="26.5" r="12.5" fill="#EBB447"/>
<circle cx="24.7688" cy="26.5" r="9.5" fill="#FFF6E4"/>
<circle cx="24.7688" cy="26.5" r="7.5" fill="#EBB447"/>
<path d="M24.7688 19C26.1032 19 27.4134 19.356 28.5643 20.0313C29.7152 20.7066 30.6651 21.6767 31.316 22.8416L24.7688 26.5L24.7688 19Z" fill="#F9DA9B"/>
<rect x="22.2688" y="12" width="4" height="4" fill="#EBB447"/>
<rect x="19.2688" y="10" width="10" height="3" fill="#EBB447"/>
</svg>
