<svg width="52" height="50" viewBox="0 0 52 50" fill="none" xmlns="http://www.w3.org/2000/svg">
<rect y="12.9371" width="52" height="26.4722" rx="8" fill="#FFF6E4"/>
<rect x="6.32434" y="33.15" width="5.10812" height="5.02587" fill="#FFE8B9"/>
<rect x="14.6735" y="26.5274" width="5.10812" height="9.39196" fill="#FFE8B9"/>
<rect x="23.0227" y="14.2691" width="5.10812" height="20.8575" fill="#FFE8B9"/>
<rect x="31.3718" y="18.7211" width="5.10812" height="17.1983" fill="#FFE8B9"/>
<rect x="39.7208" y="10" width="5.10812" height="25.1265" fill="#FFE8B9"/>
<rect x="6.32434" y="34.7966" width="5.10812" height="5.02587" fill="#FCCF76"/>
<rect x="14.6735" y="28.3299" width="5.10812" height="9.39196" fill="#FCCF76"/>
<rect x="23.0227" y="16.4521" width="5.10812" height="20.8575" fill="#FCCF76"/>
<rect x="31.3718" y="20.5236" width="5.10812" height="17.1983" fill="#FCCF76"/>
<rect x="39.7208" y="11.4027" width="5.10812" height="25.1265" fill="#FCCF76"/>
<rect x="6.32434" y="36.5292" width="5.10812" height="3.29329" fill="#EBB447"/>
<rect x="14.6735" y="30.4305" width="5.10812" height="9.39196" fill="#EBB447"/>
<rect x="23.0227" y="18.9651" width="5.10812" height="20.8575" fill="#EBB447"/>
<rect x="31.3718" y="22.6243" width="5.10812" height="17.1983" fill="#EBB447"/>
<rect x="39.7208" y="14.696" width="5.10812" height="25.1265" fill="#EBB447"/>
</svg>
